<svg width="1430" height="1430" viewBox="0 0 1430 1430" fill="none" xmlns="http://www.w3.org/2000/svg">
<path d="M305.586 265.232C312.724 260.625 320.871 256.818 333.292 257.602C378.142 260.434 444.221 273.221 504.08 286.089C564.17 299.007 617.845 311.97 638.507 315.349C679.668 322.082 750.259 322.081 791.421 315.349C812.082 311.97 865.758 299.007 925.849 286.089C985.708 273.221 1051.79 260.434 1096.64 257.602V257.603C1109.06 256.819 1117.2 260.625 1124.34 265.232C1131.22 269.673 1154.44 286.874 1173.52 301.288C1183.67 308.621 1190.94 316.215 1196.89 328.126C1204.2 342.741 1205.43 352.612 1205.43 358.545C1205.43 368.39 1202.39 430.689 1198.33 464.579C1196.28 481.649 1174.19 591.525 1150.81 704.53C1127.41 817.635 1102.64 934.322 1095.15 965.205C1080.13 1027.17 1063.24 1061.04 1045.66 1087.19C1027.86 1113.65 989.432 1144.74 930.719 1178.64C876.202 1210.12 804.284 1223.34 770.485 1228.07C727.161 1234.14 702.741 1233.87 659.464 1228.08H659.462C625.608 1223.53 553.723 1210.12 499.21 1178.64C440.497 1144.74 402.065 1113.65 384.273 1087.19C366.689 1061.04 349.801 1027.17 334.779 965.205C327.293 934.322 302.516 817.635 279.119 704.53C255.743 591.525 233.651 481.649 231.603 464.579C227.536 430.689 224.5 368.39 224.5 358.545C224.5 352.612 225.728 342.741 233.035 328.126C238.991 316.215 246.259 308.621 256.407 301.288C275.485 286.874 298.705 269.673 305.586 265.232ZM626.57 468.786C623.61 468.511 620.624 468.862 617.808 469.813C582.133 481.85 549.071 500.554 520.377 524.93C518.033 526.915 516.147 529.384 514.85 532.167C513.552 534.951 512.873 537.982 512.859 541.053L512.461 630.436L433.225 675.592C430.574 677.101 428.279 679.164 426.496 681.639C424.713 684.114 423.484 686.944 422.893 689.936C415.641 726.377 415.641 763.889 422.893 800.33C423.484 803.322 424.713 806.152 426.496 808.627C428.279 811.102 430.574 813.164 433.225 814.673L512.461 859.83L512.779 949.16C512.789 952.235 513.467 955.272 514.765 958.06C516.062 960.848 517.95 963.321 520.297 965.309C549.039 989.622 582.138 1008.25 617.834 1020.21C620.645 1021.17 623.625 1021.52 626.58 1021.25C629.535 1020.98 632.402 1020.09 634.994 1018.65L715 973.836L795.006 1018.59C798.172 1020.36 801.741 1021.27 805.365 1021.25C807.686 1021.25 809.992 1020.87 812.192 1020.13C847.858 1008.1 880.918 989.418 909.623 965.071C911.967 963.086 913.853 960.617 915.15 957.833C916.448 955.05 917.127 952.018 917.141 948.947L917.539 859.564L996.775 814.408C999.426 812.899 1001.72 810.837 1003.5 808.362C1005.29 805.887 1006.52 803.056 1007.11 800.064C1014.32 763.653 1014.29 726.178 1007.03 689.777C1006.44 686.784 1005.21 683.954 1003.42 681.479C1001.64 679.004 999.346 676.942 996.695 675.433L917.459 630.277L917.141 540.973C917.131 537.898 916.454 534.861 915.156 532.073C913.858 529.284 911.97 526.811 909.623 524.824C880.881 500.511 847.782 481.879 812.086 469.918C809.275 468.967 806.296 468.615 803.341 468.885C800.385 469.155 797.519 470.041 794.927 471.486L715 516.165L634.994 471.407C632.401 469.954 629.531 469.06 626.57 468.786ZM694.271 640.791C714.882 636.692 736.246 638.797 755.66 646.838C775.075 654.88 791.669 668.498 803.344 685.971C815.019 703.444 821.25 723.986 821.25 745C821.25 773.18 810.056 800.205 790.13 820.13C770.204 840.056 743.179 851.25 715 851.25C693.986 851.25 673.443 845.019 655.971 833.344C638.498 821.669 624.88 805.075 616.838 785.661C608.796 766.246 606.692 744.882 610.792 724.272C614.892 703.661 625.011 684.729 639.87 669.87C654.729 655.01 673.661 644.891 694.271 640.791Z" fill="#FDB002"/>
</svg>
